PathFileType	4	(X/Y/Z)	C:\Users\dbl\Desktop\20210112(1)\20210112\bx_y_10_901.trc
DataRate	CameraRate	NumFrames	NumMarkers	Units	OrigDataRate	OrigDataStartFrame	OrigNumFrames
50.00	50.00	       8	43	mm	50.00	266	       530
Frame#	Time	Top.Head			R.Acromium			L.Acromium			Sternum			R.ASIS			L.ASIS			V.Sacral			R.Thigh.Upper			R.Thigh.Front			R.Thigh.Rear			R.Knee.Lat			R.Knee.Med			R.Shank.Upper			R.Shank.Front			R.Shank.Rear			R.Ankle.Lat			R.Midfoot.Lat			R.Toe.Lat			R.Toe.Tip			R.Toe.Med			R.Ankle.Med			R.Midfoot.Sup			R.Heel			L.Thigh.Upper			L.Thigh.Front			L.Thigh.Rear			L.Knee.Lat			L.Knee.Med			L.Shank.Upper			L.Shank.Front			L.Shank.Rear			L.Ankle.Lat			L.Midfoot.Lat			L.Toe.Lat			L.Toe.Tip			L.Toe.Med			L.Ankle.Med			L.Midfoot.Sup			L.Heel			origin1 front left			origin2 front right			origin 3 back right			origin 4 back leftt			
		X1	Y1	Z1	X2	Y2	Z2	X3	Y3	Z3	X4	Y4	Z4	X5	Y5	Z5	X6	Y6	Z6	X7	Y7	Z7	X8	Y8	Z8	X9	Y9	Z9	X10	Y10	Z10	X11	Y11	Z11	X12	Y12	Z12	X13	Y13	Z13	X14	Y14	Z14	X15	Y15	Z15	X16	Y16	Z16	X17	Y17	Z17	X18	Y18	Z18	X19	Y19	Z19	X20	Y20	Z20	X21	Y21	Z21	X22	Y22	Z22	X23	Y23	Z23	X24	Y24	Z24	X25	Y25	Z25	X26	Y26	Z26	X27	Y27	Z27	X28	Y28	Z28	X29	Y29	Z29	X30	Y30	Z30	X31	Y31	Z31	X32	Y32	Z32	X33	Y33	Z33	X34	Y34	Z34	X35	Y35	Z35	X36	Y36	Z36	X37	Y37	Z37	X38	Y38	Z38	X39	Y39	Z39	X40	Y40	Z40	X41	Y41	Z41	X42	Y42	Z42	X43	Y43	Z43	

266	5.300	-758.56110	91.63958	1852.16675	-759.55499	-80.67758	1544.20874	-753.79828	274.10257	1546.01306	-668.15009	91.41927	1434.37158	-620.16522	-18.46067	1075.28198	-633.32855	212.98059	1077.44299	-840.31738	89.90415	1057.64990	-690.88373	-72.13628	874.76978	-620.89044	-12.57376	810.72827	-727.68677	-53.01754	722.39935	-724.48315	-33.29353	620.22925	-710.31097	75.33260	577.21088	-738.51501	-29.04552	568.85358	-686.82806	11.84346	522.71997	-783.04376	-38.38506	488.17175	-770.61560	-9.28574	206.41473	-664.92023	-71.27553	160.57269	-623.19189	-81.06866	156.94148	-560.85785	-40.12360	162.86269	-604.52356	17.37242	169.30421	-720.42554	72.89075	217.70712	-676.64581	51.93674	160.37888	-796.11255	50.45325	173.21883	-681.76630	275.94794	883.94257	-622.51910	212.62390	823.10663	-725.77557	268.29684	754.14435	-751.28699	244.65678	647.69788	-712.00757	140.32005	577.07562	-753.29492	242.27756	579.55072	-696.42462	203.46417	537.00873	-791.53491	250.82814	503.59949	-772.74274	223.68484	204.54517	-666.77081	300.19370	159.29956	-629.18018	307.42230	161.04736	-560.53131	261.12427	165.06424	-596.15857	223.89944	174.25374	-713.41034	153.64494	217.96613	-676.09479	174.27826	158.44370	-797.67419	173.19350	183.32281	-528.20020	304.13318	146.50064	-518.11218	-72.69402	143.16499	-876.02979	-78.57363	141.52406	-882.48108	296.14420	144.71359	
267	5.320	-756.54865	91.91581	1852.31372	-758.89087	-80.78290	1544.25635	-753.23450	274.31244	1546.00415	-667.55304	91.51503	1434.41223	-620.44244	-18.38522	1075.11646	-633.27222	212.92320	1077.38794	-840.23346	89.82861	1057.70142	-690.88586	-72.20817	874.72266	-620.93488	-12.64572	810.68787	-727.89551	-53.07474	722.39319	-724.64282	-33.47055	620.28229	-710.41211	75.18732	577.22949	-738.70636	-29.08334	568.81360	-686.90857	11.79059	522.73309	-783.12726	-38.42575	488.11362	-770.69421	-9.30904	206.42720	-664.93658	-71.26515	160.55373	-623.21698	-81.11555	156.93872	-560.86475	-40.10984	162.86209	-604.52386	17.38295	169.34932	-720.44379	72.86149	217.69868	-676.67242	51.93863	160.45375	-796.12872	50.46259	173.24034	-681.70007	275.89456	883.90216	-622.51459	212.59679	823.09198	-725.70099	268.12659	754.03326	-751.30365	244.67126	647.72198	-711.99225	140.20694	577.11646	-753.25372	242.23682	579.51886	-696.28589	203.45897	536.99481	-791.51447	250.80772	503.62305	-772.75177	223.67558	204.51149	-666.78424	300.18484	159.32639	-629.20972	307.41870	161.05786	-560.55542	261.14200	165.07193	-596.16309	223.90918	174.29480	-713.40778	153.63191	217.94492	-676.09906	174.28975	158.41963	-797.68829	173.17154	183.34950	-528.20331	304.13757	146.51459	-518.14514	-72.64097	143.18668	-876.02924	-78.57764	141.51753	-882.50092	296.17557	144.72293	
268	5.340	-754.46008	92.14567	1852.40930	-758.19525	-80.90546	1544.29846	-752.60162	274.54587	1546.01355	-666.99841	91.64523	1434.47229	-620.81317	-18.30994	1074.91650	-633.18610	212.86633	1077.33069	-840.13342	89.77647	1057.73926	-690.89630	-72.29521	874.68451	-620.97058	-12.72688	810.63690	-728.04517	-53.13972	722.43091	-724.81140	-33.63111	620.32086	-710.47083	75.10052	577.27240	-738.87585	-29.13935	568.78900	-686.95282	11.75625	522.78210	-783.19922	-38.44464	488.03714	-770.78802	-9.31263	206.43524	-664.93384	-71.26114	160.53233	-623.26587	-81.16796	156.92693	-560.88025	-40.08515	162.86325	-604.51752	17.39570	169.41547	-720.45471	72.84702	217.69188	-676.71790	51.92368	160.46901	-796.19586	50.48276	173.31355	-681.60510	275.82501	883.84320	-622.47400	212.56992	823.05798	-725.59692	267.97214	753.94354	-751.29395	244.65564	647.72888	-711.94049	140.07928	577.16602	-753.16260	242.19781	579.49487	-696.12427	203.44366	537.03259	-791.50043	250.78630	503.66382	-772.76373	223.66757	204.48541	-666.79144	300.17560	159.34261	-629.23059	307.42798	161.07019	-560.57111	261.16992	165.09013	-596.16492	223.91220	174.33936	-713.38678	153.61389	217.88899	-676.10785	174.26656	158.41147	-797.70526	173.11191	183.41052	-528.20990	304.16379	146.52390	-518.15741	-72.61160	143.19437	-876.03015	-78.57988	141.51477	-882.51636	296.18958	144.72719	
269	5.360	-752.34271	92.31912	1852.46423	-757.46545	-81.02209	1544.33984	-751.90436	274.64020	1546.01929	-666.42676	91.72449	1434.51001	-621.27814	-18.23504	1074.68164	-633.11890	212.80852	1077.26550	-840.02759	89.73880	1057.75891	-690.90723	-72.38568	874.63995	-620.98303	-12.83891	810.59448	-728.12164	-53.21269	722.51135	-724.93793	-33.74277	620.33978	-710.48523	75.07002	577.30994	-738.99756	-29.18950	568.77008	-686.97437	11.72613	522.82184	-783.25427	-38.45279	487.96875	-770.83594	-9.30523	206.43031	-664.91766	-71.25281	160.49886	-623.29956	-81.19955	156.90697	-560.90222	-40.06106	162.85815	-604.51166	17.39431	169.46323	-720.45795	72.84406	217.68912	-676.75555	51.91352	160.45184	-796.29358	50.50949	173.40475	-681.51007	275.74405	883.79535	-622.41809	212.53525	822.99780	-725.51843	267.88309	753.91498	-751.26184	244.61998	647.72095	-711.87061	139.99126	577.17755	-753.05200	242.15024	579.47894	-695.99042	203.41946	537.08270	-791.48505	250.76945	503.69168	-772.75830	223.65765	204.47577	-666.78516	300.16794	159.34351	-629.22760	307.44116	161.07962	-560.56573	261.17728	165.09100	-596.15698	223.90012	174.36751	-713.35272	153.60048	217.80328	-676.12695	174.22743	158.41173	-797.69189	173.04689	183.46677	-528.21161	304.20782	146.52855	-518.13013	-72.62489	143.18214	-876.03558	-78.58506	141.51758	-882.52820	296.17545	144.71584	
270	5.380	-750.24591	92.44861	1852.50781	-756.69678	-81.12125	1544.38513	-751.14856	274.59213	1546.03320	-665.78754	91.68795	1434.49817	-621.83807	-18.16071	1074.41150	-633.08728	212.77208	1077.19897	-839.92450	89.70975	1057.76929	-690.90863	-72.46375	874.59015	-620.96124	-12.98371	810.55792	-728.14990	-53.28952	722.59552	-725.01544	-33.80045	620.34851	-710.48560	75.07355	577.32172	-739.06909	-29.21244	568.74182	-686.99377	11.68067	522.83887	-783.29657	-38.44835	487.91876	-770.81036	-9.30581	206.41891	-664.90155	-71.24429	160.47166	-623.28650	-81.19648	156.89632	-560.92145	-40.03711	162.85391	-604.50366	17.37153	169.45396	-720.45734	72.84567	217.68895	-676.76910	51.92242	160.44263	-796.33868	50.50873	173.44728	-681.43256	275.65756	883.77393	-622.36810	212.49120	822.93451	-725.47119	267.80948	753.91107	-751.22443	244.58896	647.71277	-711.79956	139.94644	577.14087	-752.95905	242.07336	579.46136	-695.90906	203.39050	537.11053	-791.46179	250.76199	503.69928	-772.73499	223.63051	204.48483	-666.77075	300.16150	159.33846	-629.21698	307.44916	161.08006	-560.54352	261.15274	165.06197	-596.14081	223.87811	174.34982	-713.31171	153.59892	217.71068	-676.15143	174.19913	158.40312	-797.64319	172.99567	183.51706	-528.20856	304.23810	146.51845	-518.08276	-72.66283	143.15932	-876.04797	-78.59854	141.52815	-882.54425	296.13452	144.68033	
271	5.400	-748.19250	92.55141	1852.56067	-755.85675	-81.23866	1544.44299	-750.34467	274.46176	1546.03894	-665.10443	91.54487	1434.42065	-622.49359	-18.08717	1074.10547	-633.06848	212.77222	1077.14978	-839.82813	89.67225	1057.78845	-690.89227	-72.52364	874.54803	-620.90668	-13.13660	810.51111	-728.16376	-53.36743	722.63733	-725.07544	-33.84589	620.36249	-710.51245	75.06769	577.32208	-739.10565	-29.20816	568.69415	-687.01898	11.62015	522.84521	-783.34698	-38.43008	487.87732	-770.74530	-9.31754	206.38802	-664.90002	-71.25100	160.48305	-623.23657	-81.17081	156.90645	-560.92969	-40.01206	162.86115	-604.49030	17.33828	169.39922	-720.45612	72.84766	217.68959	-676.76672	51.94435	160.44794	-796.27893	50.47988	173.40337	-681.39008	275.57062	883.76843	-622.34564	212.44458	822.89520	-725.44397	267.71637	753.89423	-751.19489	244.57553	647.71735	-711.74030	139.91104	577.08362	-752.90887	241.96179	579.42987	-695.88141	203.35043	537.10712	-791.43219	250.75784	503.69354	-772.70526	223.58931	204.50644	-666.75702	300.16156	159.33130	-629.22565	307.45529	161.06694	-560.51837	261.12021	165.02644	-596.12097	223.85403	174.29213	-713.27606	153.60432	217.64137	-676.16064	174.18802	158.39133	-797.58728	172.96614	183.56303	-528.21008	304.24026	146.48962	-518.04938	-72.69620	143.13937	-876.06293	-78.61485	141.54695	-882.56818	296.09351	144.63803	
272	5.420	-746.17773	92.64662	1852.61963	-754.89972	-81.42493	1544.52234	-749.50629	274.26907	1546.00732	-664.42010	91.34563	1434.27759	-623.24542	-18.01460	1073.76343	-633.04401	212.79701	1077.11938	-839.74377	89.59642	1057.83496	-690.85461	-72.57051	874.51569	-620.84436	-13.27550	810.43622	-728.17896	-53.45701	722.62695	-725.13782	-33.91706	620.36774	-710.58643	75.00900	577.33276	-739.12189	-29.20148	568.64166	-687.04816	11.56474	522.84753	-783.42853	-38.40235	487.82751	-770.72095	-9.33920	206.32526	-664.92615	-71.26783	160.52428	-623.18140	-81.14858	156.92398	-560.92889	-39.99140	162.87500	-604.47614	17.31911	169.36096	-720.45563	72.84906	217.69000	-676.76221	51.95958	160.45439	-796.16882	50.45638	173.30840	-681.41595	275.48505	883.74860	-622.36511	212.39877	822.88135	-725.45282	267.64374	753.86487	-751.18201	244.57631	647.73419	-711.70789	139.87805	577.03522	-752.90796	241.85428	579.38269	-695.89441	203.30281	537.07800	-791.40851	250.74893	503.68549	-772.67194	223.55589	204.52805	-666.74780	300.16644	159.32063	-629.25238	307.45840	161.04456	-560.50409	261.10123	165.01430	-596.10455	223.83545	174.22615	-713.25970	153.60513	217.61324	-676.14935	174.18059	158.39777	-797.55615	172.96138	183.58502	-528.22028	304.22031	146.46846	-518.04443	-72.70802	143.13364	-876.06866	-78.61898	141.56270	-882.59033	296.08490	144.61971	
273	5.440	-744.17542	92.76022	1852.66101	-753.80536	-81.68917	1544.62415	-748.61414	274.03903	1545.95667	-663.71350	91.12132	1434.10156	-624.09424	-17.94322	1073.38477	-633.03748	212.81824	1077.07837	-839.68292	89.46404	1057.91675	-690.79999	-72.60821	874.48352	-620.81519	-13.38522	810.32544	-728.19708	-53.56118	722.58441	-725.20026	-34.00279	620.32544	-710.68866	74.89756	577.34009	-739.13525	-29.22763	568.61676	-687.08936	11.52574	522.83649	-783.54211	-38.37783	487.76962	-770.78955	-9.37782	206.25706	-664.97797	-71.27852	160.55135	-623.14709	-81.14219	156.92526	-560.93182	-39.97787	162.87982	-604.47009	17.33169	169.38184	-720.45612	72.85065	217.68974	-676.76648	51.95990	160.45450	-796.09937	50.44876	173.23250	-681.55200	275.40109	883.68701	-622.42017	212.34319	822.87213	-725.53540	267.64389	753.83990	-751.20758	244.58131	647.74109	-711.72009	139.86479	577.01166	-752.95325	241.80043	579.33276	-695.94391	203.26312	537.02655	-791.41492	250.73415	503.68326	-772.63458	223.54314	204.53738	-666.74426	300.15915	159.30656	-629.26672	307.44830	161.03188	-560.50793	261.09625	165.02789	-596.09668	223.82887	174.17377	-713.26550	153.59174	217.62491	-676.13190	174.17245	158.42281	-797.55377	172.97917	183.56313	-528.22900	304.18420	146.47922	-518.06018	-72.70020	143.14421	-876.05939	-78.60425	141.56253	-882.59589	296.11316	144.63652	
